<?xml version="1.0" encoding="UTF-8"?>
<svg width="823px" height="115px" viewBox="0 0 823 115" version="1.1" xmlns="http://www.w3.org/2000/svg" xmlns:xlink="http://www.w3.org/1999/xlink">
    <!-- Generator: Sketch 47.1 (45422) - http://www.bohemiancoding.com/sketch -->
    <title>Artboard</title>
    <desc>Created with Sketch.</desc>
    <defs></defs>
    <g id="Page-1" stroke="none" stroke-width="1" fill="none" fill-rule="evenodd">
        <g id="Artboard" fill="currentcolor">
            <path d="M51.9609375,113.953125 C17.9763926,113.953125 0.984375,95.3009678 0.984375,57.9960938 C0.984375,39.4413135 5.60672461,25.2650229 14.8515625,15.4667969 C24.0964004,5.6685708 37.3449658,0.76953125 54.5976562,0.76953125 C67.2279277,0.76953125 78.5559395,3.24346484 88.5820312,8.19140625 L79.7929688,31.2382812 C75.1054453,29.350251 70.7435098,27.8040425 66.7070312,26.5996094 C62.6705527,25.3951763 58.6341348,24.7929688 54.5976562,24.7929688 C39.1027871,24.7929688 31.3554687,35.7954629 31.3554687,57.8007813 C31.3554687,79.1550547 39.1027871,89.8320312 54.5976562,89.8320312 C60.3268516,89.8320312 65.6327881,89.0670649 70.515625,87.5371094 C75.3984619,86.0071538 80.2812256,83.6145996 85.1640625,80.359375 L85.1640625,105.847656 C80.3463301,108.907567 75.4798423,111.023432 70.5644531,112.195312 C65.649064,113.367193 59.4479541,113.953125 51.9609375,113.953125 Z M117.317499,57.2148438 C117.317499,68.0221895 119.09157,76.1926807 122.639765,81.7265625 C126.18796,87.2604443 131.965897,90.0273438 139.973749,90.0273438 C147.916497,90.0273438 153.629331,87.2767202 157.112421,81.7753906 C160.595511,76.274061 162.33703,68.0872939 162.33703,57.2148438 C162.33703,46.407498 160.579235,38.3021104 157.063593,32.8984375 C153.54795,27.4947646 147.786289,24.7929688 139.778437,24.7929688 C131.835689,24.7929688 126.106579,27.4784888 122.590937,32.8496094 C119.075294,38.22073 117.317499,46.3423936 117.317499,57.2148438 Z M192.80578,57.2148438 C192.80578,74.9883701 188.118327,88.8879707 178.74328,98.9140625 C169.368234,108.940154 156.314979,113.953125 139.583124,113.953125 C129.101301,113.953125 119.856602,111.658226 111.848749,107.068359 C103.840897,102.478493 97.6886144,95.8867617 93.3917179,87.2929688 C89.0948214,78.6991758 86.9464054,68.6732344 86.9464054,57.2148438 C86.9464054,39.3762129 91.6013068,25.5091641 100.911249,15.6132812 C110.221192,5.71739844 123.306998,0.76953125 140.169062,0.76953125 C150.650885,0.76953125 159.895584,3.0481543 167.903437,7.60546875 C175.911289,12.1627832 182.063571,18.7056865 186.360468,27.234375 C190.657364,35.7630635 192.80578,45.7564531 192.80578,57.2148438 Z M301.326405,112 L271.541248,112 L271.541248,48.2304688 C271.541248,40.3528252 270.141523,34.4446812 267.34203,30.5058594 C264.542536,26.5670376 260.082946,24.5976562 253.963123,24.5976562 C245.629748,24.5976562 239.607673,27.3808315 235.896717,32.9472656 C232.185761,38.5136997 230.330311,47.742123 230.330311,60.6328125 L230.330311,112 L200.545155,112 L200.545155,2.8203125 L223.299061,2.8203125 L227.302967,16.7851562 L228.963123,16.7851562 C232.283452,11.5116924 236.856974,7.52410205 242.683826,4.82226562 C248.510678,2.1204292 255.134961,0.76953125 262.556873,0.76953125 C275.252249,0.76953125 284.88757,4.2037417 291.463123,11.0722656 C298.038677,17.9407896 301.326405,27.8527998 301.326405,40.8085938 L301.326405,112 Z M391.292341,79.578125 C391.292341,90.7760977 387.402406,99.3046582 379.622419,105.164062 C371.842433,111.023467 360.205179,113.953125 344.71031,113.953125 C336.767562,113.953125 329.996796,113.416021 324.39781,112.341797 C318.798824,111.267573 313.557991,109.688813 308.675154,107.605469 L308.675154,82.9960938 C314.209036,85.6002734 320.442697,87.7812412 327.376326,89.5390625 C334.309954,91.2968838 340.413409,92.1757812 345.686872,92.1757812 C356.494218,92.1757812 361.89781,89.0508125 361.89781,82.8007812 C361.89781,80.4570195 361.181671,78.5527417 359.749372,77.0878906 C358.317074,75.6230396 355.84314,73.9628999 352.327497,72.1074219 C348.811855,70.2519438 344.124402,68.087252 338.264997,65.6132812 C329.866518,62.0976387 323.69796,58.8424629 319.759138,55.8476562 C315.820316,52.8528496 312.955762,49.4186392 311.165388,45.5449219 C309.375015,41.6712046 308.479841,36.9023721 308.479841,31.2382812 C308.479841,21.5377119 312.239569,14.0345317 319.759138,8.72851562 C327.278707,3.42249951 337.939408,0.76953125 351.74156,0.76953125 C364.892667,0.76953125 377.685508,3.63408594 390.120466,9.36328125 L381.136091,30.8476562 C375.667314,28.5038945 370.556688,26.5833408 365.80406,25.0859375 C361.051432,23.5885342 356.20122,22.8398438 351.253279,22.8398438 C342.464172,22.8398438 338.069685,25.2161221 338.069685,29.96875 C338.069685,32.6380342 339.485686,34.949209 342.317732,36.9023438 C345.149777,38.8554785 351.350887,41.752585 360.921247,45.59375 C369.449936,49.0442881 375.699873,52.2669121 379.671247,55.2617188 C383.642622,58.2565254 386.57228,61.7070117 388.46031,65.6132812 C390.34834,69.5195508 391.292341,74.1744521 391.292341,79.578125 Z M475.008278,112 L471.004372,98.0351562 L469.441872,98.0351562 C466.251752,103.113307 461.727057,107.035793 455.867653,109.802734 C450.008249,112.569675 443.335138,113.953125 435.848122,113.953125 C423.022537,113.953125 413.354665,110.518915 406.844215,103.650391 C400.333766,96.7818667 397.07859,86.9024082 397.07859,74.0117188 L397.07859,2.8203125 L426.863747,2.8203125 L426.863747,66.5898438 C426.863747,74.4674873 428.263472,80.3756313 431.062965,84.3144531 C433.862459,88.2532749 438.322049,90.2226562 444.441872,90.2226562 C452.775247,90.2226562 458.797322,87.439481 462.508278,81.8730469 C466.219234,76.3066128 468.074684,67.0781895 468.074684,54.1875 L468.074684,2.8203125 L497.85984,2.8203125 L497.85984,112 L475.008278,112 Z M609.993746,112 L580.20859,112 L580.20859,48.2304688 C580.20859,40.3528252 578.890243,34.4446812 576.253511,30.5058594 C573.616779,26.5670376 569.46643,24.5976562 563.80234,24.5976562 C556.185114,24.5976562 550.651315,27.3971074 547.200777,32.9960938 C543.750239,38.5950801 542.024996,47.8072275 542.024996,60.6328125 L542.024996,112 L512.23984,112 L512.23984,2.8203125 L534.993746,2.8203125 L538.997652,16.7851562 L540.657808,16.7851562 C543.58751,11.7721104 547.819239,7.84962354 553.353121,5.01757812 C558.887003,2.18553271 565.234595,0.76953125 572.39609,0.76953125 C588.737317,0.76953125 599.804915,6.10801953 605.599215,16.7851562 L608.235933,16.7851562 C611.165635,11.7070059 615.478743,7.76824316 621.175386,4.96875 C626.872029,2.16925684 633.301002,0.76953125 640.462496,0.76953125 C652.832349,0.76953125 662.19098,3.94332764 668.538668,10.2910156 C674.886356,16.6387036 678.060152,26.8111279 678.060152,40.8085938 L678.060152,112 L648.17734,112 L648.17734,48.2304688 C648.17734,40.3528252 646.858993,34.4446812 644.222261,30.5058594 C641.585529,26.5670376 637.43518,24.5976562 631.77109,24.5976562 C624.479386,24.5976562 619.026967,27.2017969 615.413668,32.4101562 C611.800368,37.6185156 609.993746,45.8866621 609.993746,57.2148438 L609.993746,112 Z M736.971401,21.9609375 C730.656265,21.9609375 725.708398,23.9628706 722.127651,27.9667969 C718.546904,31.9707231 716.496143,37.6510049 715.975307,45.0078125 L757.772182,45.0078125 C757.641973,37.6510049 755.72142,31.9707231 752.010464,27.9667969 C748.299508,23.9628706 743.286537,21.9609375 736.971401,21.9609375 Z M741.17062,113.953125 C723.592407,113.953125 709.855565,109.102913 699.959682,99.4023438 C690.0638,89.7017744 685.115932,75.9649326 685.115932,58.1914063 C685.115932,39.8970439 689.689454,25.7533052 698.836636,15.7597656 C707.983817,5.76622607 720.630175,0.76953125 736.776089,0.76953125 C752.205853,0.76953125 764.217452,5.16401855 772.811245,13.953125 C781.405038,22.7422314 785.70187,34.8840371 785.70187,50.3789062 L785.70187,64.8320312 L715.291714,64.8320312 C715.617236,73.2956152 718.123722,79.9036221 722.811245,84.65625 C727.498768,89.4088779 734.074223,91.7851562 742.537807,91.7851562 C749.113361,91.7851562 755.330747,91.1015693 761.190151,89.734375 C767.049556,88.3671807 773.169286,86.1862129 779.549526,83.1914062 L779.549526,106.238281 C774.341167,108.842461 768.774816,110.779291 762.850307,112.048828 C756.925799,113.318366 749.699308,113.953125 741.17062,113.953125 Z M788.8514,98.0351562 C788.8514,92.5663789 790.316229,88.4323057 793.245932,85.6328125 C796.175634,82.8333193 800.439914,81.4335938 806.0389,81.4335938 C811.442573,81.4335938 815.625474,82.8658711 818.587729,85.7304688 C821.549983,88.5950664 823.031088,92.6965879 823.031088,98.0351562 C823.031088,103.178411 821.533707,107.231105 818.5389,110.193359 C815.544094,113.155614 811.377469,114.636719 806.0389,114.636719 C800.570123,114.636719 796.338395,113.188166 793.343588,110.291016 C790.348781,107.393866 788.8514,103.30862 788.8514,98.0351562 Z" id="consume."></path>
        </g>
    </g>
</svg>
